# xmcd CD database file
#
# Track frame offsets:
#	150
#	17380
#	32115
#	50800
#	72387
#	90432
#	109060
#	129732
#	148362
#	167132
#
# Disc length: 2475 seconds
#
# Revision: 0
# Processed by: cddbd v1.5PL3 Copyright (c) Steve Scherf et al.
# Submitted via: CDex 1.51
#
DISCID=8e09a90a
DTITLE=小沢なつき - Chocolate Candle
DYEAR=1987
DGENRE=Pop
TTITLE0=星座だけのランデヴー
TTITLE1=クリスマスには間に合わせたい
TTITLE2=悲しみのとなり
TTITLE3=気持ちはグラデイション
TTITLE4=TALK BACK〜口ごたえ〜
TTITLE5=追いかけて夏
TTITLE6=愛・そめて
TTITLE7=帰り道
TTITLE8=15歳の境界線(ボーダーライン)
TTITLE9=ローレライ
EXTD=YEAR: 1987
EXTT0=
EXTT1=
EXTT2=
EXTT3=
EXTT4=
EXTT5=
EXTT6=
EXTT7=
EXTT8=
EXTT9=
PLAYORDER=
